<svg width="49.5px" height="51px" viewBox="0 -0.5 256 256" xmlns="http://www.w3.org/2000/svg" preserveAspectRatio="xMidYMid">
    <defs>
        <linearGradient x1="84.75%" y1="111.399%" x2="58.254%" y2="64.584%" id="a"><stop stop-color="#fb7655" offset="0%"/><stop stop-color="#fb7655" offset="0%"/><stop stop-color="#e42b1e" offset="41%"/><stop stop-color="#900" offset="99%"/><stop stop-color="#900" offset="100%"/></linearGradient>
        <linearGradient x1="116.651%" y1="60.89%" x2="1.746%" y2="19.288%" id="b"><stop stop-color="#871101" offset="0%"/><stop stop-color="#871101" offset="0%"/><stop stop-color="#911209" offset="99%"/><stop stop-color="#911209" offset="100%"/></linearGradient>
        <linearGradient x1="75.774%" y1="219.327%" x2="38.978%" y2="7.829%" id="c"><stop stop-color="#871101" offset="0%"/><stop stop-color="#871101" offset="0%"/><stop stop-color="#911209" offset="99%"/><stop stop-color="#911209" offset="100%"/></linearGradient>
        <linearGradient x1="50.012%" y1="7.234%" x2="66.483%" y2="79.135%" id="d"><stop stop-color="#fff" offset="0%"/><stop stop-color="#fff" offset="0%"/><stop stop-color="#e57252" offset="23%"/><stop stop-color="#de3b20" offset="46%"/><stop stop-color="#a60003" offset="99%"/><stop stop-color="#a60003" offset="100%"/></linearGradient>
        <linearGradient x1="46.174%" y1="16.348%" x2="49.932%" y2="83.047%" id="e"><stop stop-color="#fff" offset="0%"/><stop stop-color="#fff" offset="0%"/><stop stop-color="#e4714e" offset="23%"/><stop stop-color="#be1a0d" offset="56%"/><stop stop-color="#a80d00" offset="99%"/><stop stop-color="#a80d00" offset="100%"/></linearGradient>
        <linearGradient x1="36.965%" y1="15.594%" x2="49.528%" y2="92.478%" id="f"><stop stop-color="#fff" offset="0%"/><stop stop-color="#fff" offset="0%"/><stop stop-color="#e46342" offset="18%"/><stop stop-color="#c82410" offset="40%"/><stop stop-color="#a80d00" offset="99%"/><stop stop-color="#a80d00" offset="100%"/></linearGradient>
        <linearGradient x1="13.609%" y1="58.346%" x2="85.764%" y2="-46.717%" id="g"><stop stop-color="#fff" offset="0%"/><stop stop-color="#fff" offset="0%"/><stop stop-color="#c81f11" offset="54%"/><stop stop-color="#bf0905" offset="99%"/><stop stop-color="#bf0905" offset="100%"/></linearGradient>
        <linearGradient x1="27.624%" y1="21.135%" x2="50.745%" y2="79.056%" id="h"><stop stop-color="#fff" offset="0%"/><stop stop-color="#fff" offset="0%"/><stop stop-color="#de4024" offset="31%"/><stop stop-color="#bf190b" offset="99%"/><stop stop-color="#bf190b" offset="100%"/></linearGradient>
        <linearGradient x1="-20.667%" y1="122.282%" x2="104.242%" y2="-6.342%" id="i"><stop stop-color="#bd0012" offset="0%"/><stop stop-color="#bd0012" offset="0%"/><stop stop-color="#fff" offset="7%"/><stop stop-color="#fff" offset="17%"/><stop stop-color="#c82f1c" offset="27%"/><stop stop-color="#820c01" offset="33%"/><stop stop-color="#a31601" offset="46%"/><stop stop-color="#b31301" offset="72%"/><stop stop-color="#e82609" offset="99%"/><stop stop-color="#e82609" offset="100%"/></linearGradient>
        <linearGradient x1="58.792%" y1="65.205%" x2="11.964%" y2="50.128%" id="j"><stop stop-color="#8c0c01" offset="0%"/><stop stop-color="#8c0c01" offset="0%"/><stop stop-color="#990c00" offset="54%"/><stop stop-color="#a80d0e" offset="99%"/><stop stop-color="#a80d0e" offset="100%"/></linearGradient>
        <linearGradient x1="79.319%" y1="62.754%" x2="23.088%" y2="17.888%" id="k"><stop stop-color="#7e110b" offset="0%"/><stop stop-color="#7e110b" offset="0%"/><stop stop-color="#9e0c00" offset="99%"/><stop stop-color="#9e0c00" offset="100%"/></linearGradient>
        <linearGradient x1="92.88%" y1="74.122%" x2="59.841%" y2="39.704%" id="l"><stop stop-color="#79130d" offset="0%"/><stop stop-color="#79130d" offset="0%"/><stop stop-color="#9e120b" offset="99%"/><stop stop-color="#9e120b" offset="100%"/></linearGradient>
        <linearGradient x1="56.57%" y1="101.717%" x2="3.105%" y2="11.993%" id="o"><stop stop-color="#8b2114" offset="0%"/><stop stop-color="#8b2114" offset="0%"/><stop stop-color="#9e100a" offset="43%"/><stop stop-color="#b3100c" offset="99%"/><stop stop-color="#b3100c" offset="100%"/></linearGradient>
        <linearGradient x1="30.87%" y1="35.599%" x2="92.471%" y2="100.694%" id="p"><stop stop-color="#b31000" offset="0%"/><stop stop-color="#b31000" offset="0%"/><stop stop-color="#910f08" offset="44%"/><stop stop-color="#791c12" offset="99%"/><stop stop-color="#791c12" offset="100%"/></linearGradient>
        <radialGradient cx="32.001%" cy="40.21%" fx="32.001%" fy="40.21%" r="69.573%" id="m"><stop stop-color="#a80d00" offset="0%"/><stop stop-color="#a80d00" offset="0%"/><stop stop-color="#7e0e08" offset="99%"/><stop stop-color="#7e0e08" offset="100%"/></radialGradient>
        <radialGradient cx="13.549%" cy="40.86%" fx="13.549%" fy="40.86%" r="88.386%" id="n"><stop stop-color="#a30c00" offset="0%"/><stop stop-color="#a30c00" offset="0%"/><stop stop-color="#800e08" offset="99%"/><stop stop-color="#800e08" offset="100%"/></radialGradient>
    </defs>
    <path d="m197.467 167.764-145.52 86.41 188.422-12.787L254.88 51.393z" fill="url(#a)"/>
    <path d="M240.677 241.257 224.482 129.48l-44.113 58.25z" fill="url(#b)"/>
    <path d="m240.896 241.257-118.646-9.313-69.674 21.986z" fill="url(#c)"/>
    <path d="m52.744 253.955 29.64-97.1L17.16 170.8z" fill="url(#d)"/>
    <path d="M180.358 188.05 153.085 81.226l-78.047 73.16z" fill="url(#e)"/>
    <path d="m248.693 82.73-73.777-60.256-20.544 66.418z" fill="url(#f)"/>
    <path d="M214.191.99 170.8 24.97 143.424.669z" fill="url(#g)"/>
    <path d="m0 203.372 18.177-33.151-14.704-39.494z" fill="url(#h)"/>
    <path d="m2.496 129.48 14.794 41.963 64.283-14.422 73.39-68.207 20.712-65.787L143.063 0 87.618 20.75c-17.469 16.248-51.366 48.396-52.588 49-1.21.618-22.384 40.639-32.534 59.73" fill="#fff"/>
    <path d="M54.442 54.094c37.86-37.538 86.667-59.716 105.397-40.818 18.72 18.898-1.132 64.823-38.992 102.349-37.86 37.525-86.062 60.925-104.78 42.027-18.73-18.885.515-66.032 38.375-103.558" fill="url(#i)"/>
    <path d="m52.744 253.916 29.408-97.409 97.665 31.376c-35.312 33.113-74.587 61.106-127.073 66.033" fill="url(#j)"/>
    <path d="m155.092 88.622 25.073 99.313c29.498-31.016 55.972-64.36 68.938-105.603z" fill="url(#k)"/>
    <path d="M248.847 82.833c10.035-30.282 12.35-73.725-34.966-81.791l-38.825 21.445z" fill="url(#l)"/>
    <path d="M0 202.935c1.39 49.979 37.448 50.724 52.808 51.162l-35.48-82.86z" fill="#9e1209"/>
    <path d="M155.232 88.777c22.667 13.932 68.35 41.912 69.276 42.426 1.44.81 19.695-30.784 23.838-48.64z" fill="url(#m)"/>
    <path d="m82.113 156.507 39.313 75.848c23.246-12.607 41.45-27.967 58.121-44.42z" fill="url(#n)"/>
    <path d="m17.174 171.34-5.57 66.328c10.51 14.357 24.97 15.605 40.136 14.486-10.973-27.311-32.894-81.92-34.566-80.814" fill="url(#o)"/>
    <path d="m174.826 22.654 78.1 10.96c-4.169-17.662-16.969-29.06-38.787-32.623z" fill="url(#p)"/>
</svg>